<?xml version="1.0" standalone="no"?>
<!DOCTYPE svg PUBLIC "-//W3C//DTD SVG 20010904//EN"
 "http://www.w3.org/TR/2001/REC-SVG-20010904/DTD/svg10.dtd">
<svg version="1.0" xmlns="http://www.w3.org/2000/svg"
 width="512.000000pt" height="512.000000pt" viewBox="0 0 512.000000 512.000000"
 preserveAspectRatio="xMidYMid meet">
<metadata>
Created by potrace 1.14, written by Peter Selinger 2001-2017
</metadata>
<g transform="translate(0.000000,512.000000) scale(0.100000,-0.100000)"
fill="#000000" stroke="none">
<path d="M895 5104 c-23 -8 -57 -28 -77 -44 -41 -34 -88 -120 -88 -161 0 -14
-7 -32 -15 -39 -8 -7 -15 -10 -15 -7 0 10 -115 -25 -165 -50 -165 -81 -196
-235 -71 -346 42 -36 104 -65 190 -86 l70 -17 2 -42 c1 -23 -2 -45 -6 -47 -5
-3 -32 -10 -62 -15 -106 -20 -218 -92 -255 -164 -29 -57 -17 -139 29 -197 42
-51 157 -106 259 -123 38 -7 39 -10 30 -91 0 -6 -28 -17 -62 -24 -299 -61
-368 -311 -121 -435 26 -13 72 -29 102 -36 80 -18 85 -22 86 -68 0 -45 0 -45
-71 -57 -74 -13 -178 -68 -217 -116 -60 -75 -67 -136 -25 -214 38 -68 175
-143 287 -157 22 -3 25 -8 26 -48 l0 -45 -70 -18 c-227 -56 -325 -198 -237
-341 37 -59 156 -124 256 -140 21 -4 42 -11 46 -17 7 -12 5 -77 -2 -82 -2 -1
-34 -10 -70 -19 -124 -31 -206 -85 -245 -160 -20 -38 -20 -117 0 -156 17 -33
83 -95 123 -115 35 -18 117 -43 164 -51 36 -6 37 -7 35 -51 -1 -24 -4 -46 -6
-48 -3 -1 -30 -8 -62 -14 -82 -17 -167 -60 -215 -111 -80 -84 -74 -195 15
-274 43 -37 141 -83 197 -93 73 -12 72 -12 71 -60 -1 -25 -5 -45 -9 -46 -41
-4 -138 -34 -180 -55 -249 -125 -174 -379 130 -437 61 -11 68 -15 91 -52 36
-58 86 -101 139 -119 42 -14 216 -16 1722 -13 1613 2 1677 3 1711 21 49 26 98
74 123 121 17 33 22 62 25 161 l4 122 44 6 c76 10 158 76 192 156 18 41 24
400 9 484 -16 88 -77 159 -165 190 -45 16 -44 16 -67 16 -13 0 -15 52 -13 427
l3 426 30 4 c82 11 163 73 199 153 18 41 20 65 20 270 0 205 -2 229 -20 270
-36 80 -117 142 -199 153 l-30 4 -3 426 c-2 408 -1 427 16 427 35 0 108 31
145 61 21 17 50 54 64 83 27 51 27 52 27 281 0 215 -2 233 -22 276 -37 80
-135 149 -209 149 -19 0 -21 8 -25 123 -5 133 -15 165 -72 225 -17 19 -49 43
-71 55 l-40 22 -1680 2 c-1437 1 -1686 -1 -1720 -13z m-169 -502 l-1 -67 -30
3 c-44 5 -135 49 -135 65 0 8 8 21 18 30 23 21 136 57 143 45 3 -5 5 -39 5
-76z m-2 -579 c-1 -98 1 -93 -41 -82 -53 14 -123 50 -123 63 1 28 57 64 114
73 17 3 33 7 35 9 13 12 16 -3 15 -63z m2 -605 l-1 -73 -37 2 c-45 3 -116 37
-125 60 -8 20 20 41 86 65 76 28 77 28 77 -54z m0 -600 l-1 -73 -33 3 c-41 3
-122 40 -129 59 -8 21 21 46 75 65 87 30 89 29 88 -54z m-1 -590 c-2 -40 -3
-76 -4 -81 -3 -19 -146 36 -155 60 -12 30 21 52 114 79 25 7 45 13 46 13 0 1
0 -32 -1 -71z m1 -606 c0 -67 -1 -72 -22 -72 -55 0 -144 47 -144 76 0 21 126
78 155 70 6 -1 10 -35 11 -74z m0 -600 l1 -73 -31 4 c-47 6 -125 44 -133 63
-7 20 17 40 80 65 74 29 81 24 83 -59z m0 -597 c0 -48 -4 -75 -11 -75 -23 0
-111 34 -138 52 -24 17 -26 22 -15 36 18 21 98 57 134 60 l30 2 0 -75z"/>
</g>
</svg>
